<?xml version="1.0" standalone="no"?>
<!DOCTYPE svg PUBLIC "-//W3C//DTD SVG 20010904//EN"
 "http://www.w3.org/TR/2001/REC-SVG-20010904/DTD/svg10.dtd">
<svg version="1.0" xmlns="http://www.w3.org/2000/svg"
 width="512.000000pt" height="512.000000pt" viewBox="0 0 512.000000 512.000000"
 preserveAspectRatio="xMidYMid meet">

<g transform="translate(0.000000,512.000000) scale(0.100000,-0.100000)"
fill="#000000" stroke="none">
<path d="M164 4979 c-79 -78 -148 -155 -155 -171 -17 -41 -2 -79 39 -100 46
-22 75 -11 142 57 30 30 58 55 62 55 4 0 8 -885 8 -1967 l0 -1966 -69 66 c-58
56 -75 67 -103 67 -37 -1 -59 -14 -76 -47 -26 -47 -16 -63 140 -220 140 -140
155 -153 188 -153 19 0 40 4 45 8 6 4 74 73 153 153 122 126 142 151 142 178
0 44 -38 81 -84 81 -29 0 -46 -10 -101 -61 l-65 -61 0 1963 0 1963 58 -56 c84
-84 135 -94 176 -36 37 53 27 71 -137 235 -137 137 -156 153 -187 153 -30 0
-49 -15 -176 -141z"/>
<path d="M883 5096 l-28 -24 -3 -2066 c-2 -2296 -8 -2125 65 -2146 27 -8 612
-10 2096 -8 l2059 3 24 28 24 28 0 2069 c0 1495 -3 2076 -11 2093 -6 14 -22
30 -36 36 -17 8 -598 11 -2093 11 l-2069 0 -28 -24z m1507 -401 l0 -255 -44 0
c-53 0 -94 -14 -112 -38 -22 -28 -17 -80 11 -107 24 -25 25 -25 230 -25 205 0
206 0 230 25 32 31 32 75 2 111 -20 23 -34 28 -85 32 l-62 4 0 254 0 254 385
0 385 0 0 -487 c0 -486 0 -487 22 -510 21 -22 26 -23 210 -23 l188 0 0 -37 c0
-56 18 -111 40 -123 10 -5 33 -10 50 -10 77 0 90 35 90 250 0 189 -8 226 -56
246 -29 12 -39 12 -68 0 -37 -15 -56 -57 -56 -123 l0 -33 -125 0 -125 0 0 425
0 425 725 0 725 0 0 -425 0 -425 -169 0 -169 0 -4 60 c-6 86 -51 124 -117 99
-48 -19 -50 -30 -51 -248 0 -197 1 -206 22 -228 27 -29 86 -31 119 -4 19 15
24 30 27 85 l4 66 167 -2 166 -3 3 -682 2 -683 -254 0 -254 0 -4 62 c-4 51 -9
65 -32 85 -36 30 -80 30 -111 -2 -25 -24 -25 -25 -25 -230 0 -205 0 -206 25
-230 27 -28 79 -33 107 -11 24 18 38 59 38 112 l0 44 255 0 255 0 0 -685 0
-685 -937 2 -938 3 -3 682 -2 683 254 0 253 0 6 -62 c5 -51 10 -67 32 -85 33
-29 74 -29 109 -2 l26 20 0 214 0 214 -26 20 c-35 27 -76 27 -109 -2 -22 -18
-27 -34 -32 -85 l-6 -62 -303 0 c-321 0 -343 -3 -363 -47 -8 -17 -11 -241 -11
-759 l0 -734 -937 2 -938 3 0 85 0 84 35 7 c19 3 67 12 105 19 315 58 615 288
764 587 71 144 111 298 114 450 2 81 1 85 -26 109 l-28 24 -485 0 -484 0 0
255 0 255 735 0 c517 0 741 3 758 11 44 20 47 42 47 363 l0 303 62 6 c51 5 67
10 85 32 29 33 29 74 2 109 l-20 26 -214 0 -214 0 -20 -26 c-27 -35 -27 -76 2
-109 18 -22 34 -27 85 -32 l62 -6 0 -253 0 -254 -682 2 -683 3 -3 938 -2 937
685 0 685 0 0 -255z m-517 -2517 c-8 -60 -48 -195 -77 -262 -116 -263 -374
-471 -659 -532 -38 -7 -79 -14 -93 -14 l-24 0 0 425 0 425 429 0 429 0 -5 -42z"/>
<path d="M761 538 c-80 -79 -149 -147 -153 -153 -4 -5 -8 -26 -8 -45 0 -33 13
-48 153 -188 130 -129 158 -152 184 -152 43 0 83 42 83 87 0 29 -11 46 -67
104 l-66 69 1966 0 c1082 0 1967 -4 1967 -8 0 -4 -25 -32 -55 -62 -65 -64 -78
-94 -60 -137 15 -36 42 -53 81 -53 22 0 58 31 181 153 138 138 153 155 153
187 0 31 -15 49 -153 187 -164 164 -182 174 -235 137 -58 -41 -48 -92 36 -176
l56 -58 -1963 0 -1963 0 61 65 c51 55 61 72 61 101 0 46 -37 84 -81 84 -27 0
-52 -20 -178 -142z"/>
</g>
</svg>
