<?xml version="1.0" standalone="no"?>
<!DOCTYPE svg PUBLIC "-//W3C//DTD SVG 20010904//EN"
 "http://www.w3.org/TR/2001/REC-SVG-20010904/DTD/svg10.dtd">
<svg version="1.0" xmlns="http://www.w3.org/2000/svg"
 width="512.000000pt" height="512.000000pt" viewBox="0 0 512.000000 512.000000"
 preserveAspectRatio="xMidYMid meet">

<g transform="translate(0.000000,512.000000) scale(0.100000,-0.100000)"
fill="#000000" stroke="none">
<path d="M2355 5019 c-345 -36 -691 -174 -978 -391 -105 -79 -286 -260 -365
-365 -222 -294 -352 -624 -392 -995 -55 -517 121 -1063 473 -1469 l75 -86
-259 -449 c-143 -247 -262 -459 -266 -472 -8 -34 12 -70 43 -78 17 -4 156 19
381 65 196 39 357 70 358 69 1 -2 53 -155 115 -342 63 -191 121 -347 131 -357
25 -25 73 -24 96 1 10 10 143 236 296 502 l278 483 219 0 218 0 289 -500 c158
-275 298 -510 310 -522 12 -13 33 -23 46 -23 13 0 33 10 44 23 11 12 69 167
134 359 90 266 118 338 131 338 9 0 173 -32 364 -71 l347 -71 26 20 c53 39 51
43 -243 551 l-274 474 75 86 c272 315 432 687 473 1100 47 479 -94 972 -390
1361 -411 540 -1079 829 -1755 759z m393 -140 c548 -59 1035 -359 1334 -824
218 -336 320 -762 277 -1153 -26 -238 -75 -406 -185 -627 -87 -176 -173 -301
-302 -436 -492 -518 -1229 -699 -1901 -467 -349 120 -667 357 -884 659 -80
111 -204 356 -246 487 -133 404 -116 851 45 1246 152 372 438 694 792 893 224
126 434 192 727 226 68 8 252 6 343 -4z m-1400 -3322 c211 -169 479 -303 728
-363 63 -16 114 -31 114 -35 0 -7 -438 -769 -449 -782 -4 -4 -54 131 -111 299
-89 265 -106 307 -128 317 -20 9 -81 0 -335 -51 -171 -34 -312 -61 -313 -59
-2 2 120 215 369 645 26 45 50 82 53 82 3 0 35 -24 72 -53z m2724 -331 c120
-208 218 -379 218 -381 0 -1 -140 26 -312 61 -310 62 -344 65 -363 33 -5 -6
-54 -146 -109 -310 l-102 -298 -234 406 c-129 223 -236 411 -238 417 -1 6 46
23 110 39 256 63 537 204 733 366 33 27 64 49 69 47 5 -1 107 -172 228 -380z"/>
<path d="M2390 4519 c-780 -97 -1352 -808 -1270 -1579 101 -951 1056 -1546
1948 -1214 475 177 825 598 918 1105 23 126 24 371 1 496 -108 594 -558 1053
-1149 1173 -118 24 -334 34 -448 19z m416 -154 c169 -34 341 -106 489 -203 93
-62 280 -248 342 -342 101 -152 167 -307 204 -483 31 -144 31 -370 0 -514
-110 -520 -504 -914 -1024 -1024 -133 -29 -360 -31 -490 -6 -272 54 -495 173
-688 366 -192 192 -304 399 -360 664 -31 145 -31 371 -1 514 58 268 164 465
357 659 188 190 398 307 651 364 145 32 372 35 520 5z"/>
<path d="M2517 3968 c-9 -7 -66 -141 -128 -298 -61 -157 -112 -286 -113 -286
0 -1 -134 -9 -296 -18 -162 -10 -307 -22 -323 -28 -28 -11 -41 -39 -35 -79 2
-19 219 -208 451 -393 l28 -23 -75 -290 c-42 -160 -76 -300 -76 -312 0 -29 35
-61 66 -61 17 0 120 59 285 165 l259 165 259 -165 c167 -107 267 -165 285
-165 31 0 66 32 66 61 0 12 -34 152 -76 312 l-75 290 28 23 c232 185 449 374
451 393 6 40 -7 68 -35 79 -16 6 -161 18 -323 28 -162 9 -296 17 -296 18 -1 0
-52 129 -113 286 -62 157 -119 291 -128 298 -9 6 -29 12 -43 12 -14 0 -34 -6
-43 -12z m132 -473 c46 -118 92 -222 102 -231 14 -13 63 -19 241 -30 123 -8
231 -15 241 -16 12 -2 -44 -53 -163 -152 -100 -81 -186 -159 -192 -172 -9 -19
0 -66 49 -251 33 -125 58 -230 57 -232 -2 -2 -92 54 -201 123 -118 75 -208
126 -223 126 -15 0 -105 -51 -223 -126 -109 -69 -199 -125 -201 -123 -1 2 24
105 56 228 35 132 57 234 53 248 -3 14 -77 82 -190 176 -117 96 -178 153 -167
155 9 1 117 8 240 16 177 11 227 17 241 30 10 9 55 113 102 231 46 118 86 215
89 215 3 0 43 -97 89 -215z"/>
</g>
</svg>
