<?xml version="1.0" standalone="no"?>
<!DOCTYPE svg PUBLIC "-//W3C//DTD SVG 20010904//EN"
 "http://www.w3.org/TR/2001/REC-SVG-20010904/DTD/svg10.dtd">
<svg version="1.0" xmlns="http://www.w3.org/2000/svg"
 width="512.000000pt" height="512.000000pt" viewBox="0 0 512.000000 512.000000"
 preserveAspectRatio="xMidYMid meet">

<g transform="translate(0.000000,512.000000) scale(0.100000,-0.100000)"
fill="#000000" stroke="none">
<path d="M550 4974 c-254 -54 -435 -277 -435 -534 0 -103 15 -159 67 -264 43
-85 405 -647 434 -673 14 -13 36 -23 49 -23 13 0 35 10 49 23 30 26 391 587
436 677 37 74 70 195 70 260 0 66 -34 191 -71 261 -71 133 -219 241 -374 274
-85 18 -140 18 -225 -1z m192 -155 c122 -26 225 -108 279 -222 52 -112 49
-218 -10 -337 -41 -81 -341 -546 -349 -540 -14 9 -315 483 -343 540 -59 119
-62 225 -10 337 53 111 140 184 262 217 67 18 103 19 171 5z"/>
<path d="M573 4722 c-210 -75 -266 -330 -106 -484 56 -55 115 -78 198 -78 304
0 402 412 130 545 -72 35 -153 42 -222 17z m154 -162 c44 -27 66 -64 66 -114
0 -74 -53 -126 -128 -126 -75 0 -128 52 -128 126 0 24 7 54 17 69 23 35 74 65
111 65 17 0 44 -9 62 -20z"/>
<path d="M1467 4210 c-33 -26 -36 -71 -7 -100 20 -20 33 -20 864 -20 544 0
872 -4 921 -11 169 -23 313 -97 431 -221 89 -94 183 -268 145 -268 -5 0 -30
-20 -54 -45 -110 -110 -98 -299 23 -383 45 -31 46 -35 24 -88 -60 -144 -203
-291 -349 -360 -141 -67 -145 -67 -631 -72 l-442 -3 -5 23 c-11 43 -66 104
-119 134 -69 38 -170 41 -234 7 -48 -25 -104 -85 -123 -131 l-13 -32 -422 0
c-373 0 -431 -2 -512 -19 -276 -57 -515 -258 -625 -525 -13 -32 -31 -60 -39
-63 -100 -30 -168 -91 -196 -176 -46 -139 42 -296 187 -330 21 -5 31 -19 48
-64 72 -189 247 -376 433 -463 159 -74 153 -74 665 -78 l462 -3 11 -35 c16
-49 91 -119 147 -138 126 -43 249 4 314 120 l31 54 572 0 c542 0 574 1 589 18
24 26 21 75 -4 98 -20 18 -47 19 -594 22 l-573 2 -13 32 c-79 190 -370 198
-459 12 l-22 -45 -457 3 -456 4 -73 26 c-191 70 -330 192 -417 365 -19 37 -35
73 -35 79 0 5 20 24 43 41 62 43 97 116 97 202 -1 86 -23 134 -90 194 l-53 48
41 82 c71 144 180 251 327 322 146 71 183 75 658 75 l414 0 18 -40 c22 -48 82
-106 134 -127 50 -22 136 -21 193 0 51 20 123 90 140 138 l10 29 408 0 c450 0
519 6 658 60 218 84 398 257 486 467 31 73 32 75 90 98 107 44 166 129 166
241 0 112 -80 219 -184 245 -39 10 -43 14 -64 72 -26 74 -101 192 -167 266
-106 116 -263 210 -425 253 -85 22 -89 22 -976 25 l-890 4 -27 -21z m2533
-745 c42 -21 60 -53 60 -103 0 -37 -6 -50 -34 -78 -29 -29 -41 -34 -80 -34
-59 0 -104 37 -113 92 -15 98 80 168 167 123z m-1807 -789 c128 -53 58 -252
-76 -215 -101 28 -116 167 -23 213 39 19 58 20 99 2z m-1808 -786 c7 0 27 -14
44 -31 26 -26 31 -38 31 -78 0 -56 -23 -91 -69 -111 -102 -42 -200 79 -139
170 23 35 80 63 106 54 8 -2 20 -4 27 -4z m1841 -824 c29 -29 34 -41 34 -80 0
-61 -37 -105 -96 -113 -97 -13 -164 80 -119 167 21 42 53 60 103 60 37 0 50
-6 78 -34z"/>
<path d="M3909 1647 c-19 -12 -44 -42 -56 -67 l-23 -44 0 -621 c0 -388 4 -634
10 -657 15 -52 77 -105 135 -113 65 -10 130 24 162 84 23 43 23 50 23 333 l0
288 410 0 411 0 24 25 c42 41 34 61 -89 206 l-113 135 109 129 c60 71 111 140
115 153 4 15 -1 33 -14 50 l-20 27 -426 5 -425 5 -22 28 c-48 61 -147 77 -211
34z m109 -737 c1 -385 -1 -617 -7 -623 -7 -7 -16 -6 -26 3 -13 11 -15 85 -15
620 0 333 3 610 7 614 4 4 14 5 23 4 13 -3 15 -72 18 -618z m782 525 c0 -3
-36 -48 -80 -100 -52 -62 -80 -104 -80 -119 0 -16 28 -58 80 -119 44 -52 80
-97 80 -101 0 -3 -144 -6 -320 -6 l-320 0 0 225 0 225 320 0 c176 0 320 -2
320 -5z"/>
</g>
</svg>
