<?xml version="1.0" standalone="no"?>
<!DOCTYPE svg PUBLIC "-//W3C//DTD SVG 20010904//EN"
 "http://www.w3.org/TR/2001/REC-SVG-20010904/DTD/svg10.dtd">
<svg version="1.0" xmlns="http://www.w3.org/2000/svg"
 width="512.000000pt" height="512.000000pt" viewBox="0 0 512.000000 512.000000"
 preserveAspectRatio="xMidYMid meet">

<g transform="translate(0.000000,512.000000) scale(0.100000,-0.100000)"
fill="#000000" stroke="none">
<path d="M745 5101 c-47 -22 -89 -64 -104 -104 -7 -18 -11 -164 -11 -408 l0
-379 -227 0 c-200 0 -233 -3 -269 -19 -58 -26 -111 -92 -124 -155 -8 -36 -10
-463 -8 -1461 l3 -1410 22 -42 c27 -51 82 -96 132 -112 28 -8 297 -11 955 -11
l916 0 0 -205 0 -205 -202 0 c-185 0 -206 -2 -236 -20 -66 -40 -72 -63 -72
-274 0 -215 7 -239 81 -276 37 -19 63 -20 959 -20 896 0 922 1 959 20 74 37
81 61 81 276 0 211 -6 234 -72 274 -30 18 -51 20 -235 20 l-203 0 0 205 0 205
610 0 611 0 24 25 c32 31 32 69 0 100 l-24 25 -2056 0 -2056 0 -24 25 c-25 24
-25 27 -25 199 l0 176 26 -10 c34 -13 4716 -14 4762 -1 l32 10 0 -175 c0 -172
0 -175 -25 -199 -23 -24 -28 -25 -178 -25 -141 0 -157 -2 -181 -21 -34 -27
-35 -71 -1 -104 24 -25 27 -25 187 -25 142 0 169 3 208 21 56 25 86 53 113
104 l22 40 3 1410 c2 998 0 1425 -8 1461 -13 63 -66 129 -124 155 -29 13 -65
19 -123 19 l-82 0 -40 86 c-47 99 -115 195 -195 274 l-56 54 0 173 c0 97 -5
184 -11 200 -15 40 -57 82 -104 104 -38 18 -102 19 -1576 19 l-1536 0 -21 -23
c-29 -31 -29 -77 1 -105 l23 -22 1525 0 c1173 0 1528 -3 1537 -12 8 -8 12 -50
12 -124 l0 -111 -82 33 c-114 45 -217 64 -347 64 -165 0 -297 -33 -437 -110
l-73 -40 -1311 0 -1310 0 0 138 c0 94 4 142 12 150 7 7 42 12 89 12 94 0 108
5 124 43 15 36 3 82 -25 97 -33 18 -190 12 -235 -9z m3338 -447 c247 -54 464
-247 550 -489 104 -294 25 -610 -207 -821 -122 -112 -263 -176 -435 -196 -326
-38 -654 156 -784 465 -180 430 75 931 531 1042 79 19 257 19 345 -1z m-893
-185 c-54 -69 -105 -162 -138 -253 l-28 -75 -214 125 c-162 93 -224 124 -249
124 -27 0 -127 -53 -445 -236 -226 -130 -422 -247 -436 -261 l-25 -23 -3 -495
c-2 -421 0 -499 12 -524 12 -22 108 -82 427 -266 227 -131 424 -243 439 -248
15 -6 37 -7 51 -4 13 4 211 114 439 246 297 171 420 247 432 268 14 22 18 51
18 142 0 87 3 112 13 108 163 -69 244 -92 363 -102 139 -12 330 23 447 81 l47
24 0 -440 0 -440 -26 -10 c-16 -6 -655 -10 -1754 -10 -1099 0 -1738 4 -1754
10 l-26 10 0 1150 0 1150 1225 0 1225 0 -40 -51z m-406 -361 l213 -123 5 -120
c3 -66 9 -127 12 -135 5 -12 -48 -47 -224 -148 l-230 -133 -341 197 c-322 186
-340 198 -318 210 13 7 164 94 334 193 171 99 316 180 323 180 7 1 109 -54
226 -121z m-2154 -978 c0 -910 0 -932 20 -970 25 -50 73 -86 130 -99 62 -15
3498 -15 3560 0 57 13 105 49 130 99 19 38 20 60 20 537 l0 499 70 69 c119
117 204 270 247 441 12 49 17 112 18 212 l0 142 48 0 c38 0 53 -5 73 -25 l24
-24 -2 -1136 -3 -1137 -33 -29 -32 -29 -2340 0 -2340 0 -32 29 -33 29 -3 1137
-2 1136 24 24 25 25 216 0 215 0 0 -930z m1511 387 l334 -193 3 -393 c1 -235
-1 -391 -7 -389 -5 1 -158 89 -340 193 l-331 190 0 393 c0 215 2 392 4 392 2
0 154 -87 337 -193z m945 1 c31 -70 107 -180 173 -250 l61 -66 0 -138 0 -139
-330 -190 c-182 -104 -335 -192 -340 -193 -7 -3 -9 135 -8 389 l3 393 200 117
c110 64 205 117 211 118 6 1 20 -18 30 -41z m-148 -2720 l-3 -203 -375 0 -375
0 -3 203 -2 202 380 0 380 0 -2 -202z m512 -503 l0 -145 -890 0 -890 0 0 145
0 145 890 0 890 0 0 -145z"/>
<path d="M4040 3995 l-245 -244 -126 124 c-131 129 -151 141 -199 115 -28 -15
-40 -61 -25 -96 7 -16 78 -93 157 -171 142 -140 145 -143 189 -143 l44 0 277
278 c243 242 278 281 278 308 0 38 -36 74 -75 74 -25 0 -67 -38 -275 -245z"/>
<path d="M1206 4364 c-26 -27 -26 -28 -26 -180 l0 -153 26 -20 c43 -34 86 -26
109 20 10 18 15 59 15 119 l0 90 90 0 c60 0 101 5 119 15 46 23 54 66 20 109
l-20 26 -153 0 c-152 0 -153 0 -180 -26z"/>
<path d="M1206 2709 l-26 -20 0 -153 c0 -149 1 -154 25 -180 24 -26 24 -26
179 -26 l155 0 20 26 c36 46 22 93 -33 114 -15 5 -65 10 -112 10 l-84 0 0 90
c0 99 -10 132 -47 149 -34 16 -47 14 -77 -10z"/>
<path d="M3834 2718 c-34 -16 -44 -51 -44 -148 l0 -90 -84 0 c-45 0 -97 -5
-115 -11 -53 -19 -66 -67 -30 -113 l20 -26 153 0 c152 0 153 0 180 26 26 27
26 28 26 180 l0 153 -26 20 c-29 23 -48 25 -80 9z"/>
</g>
</svg>
