<?xml version="1.0" encoding="UTF-8"?>
<svg version="1.1" xmlns="http://www.w3.org/2000/svg" width="512" height="512">
<path d="M0 0 C1.01450623 -0.06957965 2.02901246 -0.13915931 3.07426131 -0.21084744 C6.48249447 -0.43962852 9.89142996 -0.6532883 13.30082703 -0.86398315 C14.49634347 -0.93950649 15.69185992 -1.01502982 16.92360413 -1.09284174 C49.26113444 -3.11598238 81.62665919 -4.36439734 114.01574153 -5.1797542 C116.32921386 -5.23835432 118.64262931 -5.29890601 120.95604563 -5.35967302 C260.29786239 -8.96729071 260.29786239 -8.96729071 301.92960328 30.13644505 C307.90384302 35.93534206 313.25607872 42.20933606 318.45976257 48.69900513 C318.92048298 49.26950686 319.38120339 49.8400086 319.85588503 50.42779827 C351.46657553 89.72012395 351.46657553 89.72012395 350.97367859 105.75979614 C350.81538712 111.79617029 350.71624781 117.82818738 350.66655064 123.86616611 C350.63232114 127.51563835 350.56950227 131.16012433 350.44291687 134.80764771 C349.23853349 150.13972922 349.23853349 150.13972922 353.56288147 164.13601685 C357.26168405 167.55243319 361.35275136 169.34429862 366.04452515 171.02139282 C370.33523778 172.8982589 373.36610272 176.44574584 376.69023132 179.65994263 C379.00377128 181.93433915 379.00377128 181.93433915 381.62382507 183.96463013 C401.79221304 200.12561853 414.30858647 229.11321578 419.02226257 253.88650513 C419.33686029 257.22124095 419.34531063 259.1394565 418.02226257 262.19900513 C415.46298927 264.35839198 413.39770399 264.73079084 410.15507507 265.29666138 C406.56573901 264.60640444 405.24006449 262.71311542 403.02226257 259.88650513 C401.90573764 257.01404368 401.28443588 254.08417272 400.64726257 251.07400513 C393.84240778 222.56651438 375.93733571 196.69235566 350.90507507 181.16775513 C333.23188704 170.62992699 314.68549259 164.09186021 294.02226257 162.88650513 C293.15601257 162.8323645 292.28976257 162.77822388 291.39726257 162.72244263 C260.30601739 161.75084121 230.88230168 173.79346571 208.28788757 194.75369263 C207.1664032 195.80943481 207.1664032 195.80943481 206.02226257 196.88650513 C205.41898132 197.42533325 204.81570007 197.96416138 204.19413757 198.51931763 C182.92877884 218.29411383 173.95072636 248.00013913 171.77616882 276.06228638 C170.92724095 308.97072557 184.75991759 338.79901968 207.02226257 362.32400513 C226.79423167 381.65842028 254.45308584 393.43549583 282.02226257 394.88650513 C282.86144226 394.93935669 283.70062195 394.99220825 284.56523132 395.04666138 C314.59394536 396.02079455 344.7338251 384.59619158 366.87773132 364.44119263 C388.0960209 344.4114244 399.54778026 319.24664802 403.50370789 290.60305786 C404.56666138 283.51892074 404.56666138 283.51892074 406.92460632 280.24588013 C410.09824093 278.18922307 412.33487316 278.35973521 416.02226257 278.88650513 C418.87046658 280.83527629 419.81987757 282.11461813 420.69413757 285.44900513 C421.11730821 289.88222129 420.58664493 293.87834325 419.89726257 298.26150513 C419.76110535 299.14129028 419.62494812 300.02107544 419.48466492 300.92752075 C416.53300442 318.77296982 409.22757715 334.90151189 401.02226257 350.88650513 C403.48449045 353.61081512 405.99721147 356.28292724 408.52226257 358.94900513 C409.21835632 359.72050903 409.91445007 360.49201294 410.63163757 361.28689575 C414.25032129 365.36486733 414.25032129 365.36486733 419.16288757 367.0539856 C421.12535562 366.71507253 423.07477525 366.30296161 425.02226257 365.88650513 C429.01124807 367.78826697 431.88953609 370.49141491 435.0085907 373.58230591 C435.71452614 374.27816551 435.71452614 374.27816551 436.4347229 374.98808289 C437.97962191 376.51408039 439.51695995 378.04741927 441.05351257 379.58181763 C442.1328362 380.65470639 443.2123064 381.72744772 444.29191589 382.80004883 C446.5514688 385.04764746 448.80687061 387.29932067 451.05986023 389.55349731 C453.93106605 392.42490587 456.81575636 395.28233254 459.70424652 398.13633919 C461.93837112 400.34809434 464.16321245 402.56901512 466.38565063 404.79250717 C467.44444895 405.84896315 468.50645075 406.90221958 469.57183838 407.95203018 C478.58949193 416.8501283 486.12261716 425.7067282 486.40287781 438.95095825 C486.37420409 450.11126646 484.32909686 458.03653444 477.08085632 466.84353638 C469.87155701 473.99811615 460.94234952 477.30132999 450.89726257 477.32400513 C428.19996069 477.17769678 413.97016179 457.02105664 399.06156921 442.1111145 C396.30712606 439.35889088 393.54472972 436.61481098 390.7820282 433.87088013 C389.02437924 432.11615997 387.2672001 430.36096906 385.51054382 428.60525513 C384.68669693 427.78859375 383.86285004 426.97193237 383.01403809 426.13052368 C382.25531906 425.36872803 381.49660004 424.60693237 380.71488953 423.822052 C380.04794571 423.1565332 379.38100189 422.4910144 378.69384766 421.80532837 C377.02868613 419.89387877 375.95951651 418.2362063 375.02226257 415.88650513 C375.30717468 413.81057739 375.30717468 413.81057739 375.86210632 411.64041138 C376.27995725 408.63791554 376.31577998 407.36234096 374.7063446 404.75320435 C372.76043761 402.64145011 370.73581654 400.72605018 368.58476257 398.82400513 C367.86482117 398.14918091 367.14487976 397.47435669 366.40312195 396.77908325 C364.6299411 395.1233316 362.83795121 393.49532302 361.02226257 391.88650513 C357.9371543 393.08626946 354.97179215 394.38653068 352.02226257 395.88650513 C352.01639633 397.08174301 352.01053009 398.2769809 352.00448608 399.50843811 C351.94718009 410.79304889 351.87437718 422.07746843 351.78654766 433.36188412 C351.74189173 439.1628015 351.70262493 444.96364941 351.67582703 450.76467896 C351.64974663 456.36691584 351.60931034 461.96888474 351.55907631 467.57095528 C351.54243968 469.70424621 351.53090551 471.83758347 351.52464867 473.9709301 C351.51497283 476.9677299 351.4868715 479.96384903 351.45463562 482.96047974 C351.45607071 483.83514389 351.4575058 484.70980804 351.45898438 485.61097717 C351.34488552 493.15084941 349.95598429 500.54493249 344.70976257 506.26150513 C344.15675476 506.8879895 343.60374695 507.51447388 343.03398132 508.15994263 C338.68384296 511.89345944 334.59401615 513.26121312 328.91832924 513.26682186 C327.70954507 513.2752618 326.50076089 513.28370174 325.25534689 513.29239744 C323.93590374 513.28638739 322.61646058 513.28037735 321.2570343 513.27418518 C319.83449711 513.27835935 318.41196324 513.28383733 316.98943555 513.29050499 C313.08482718 513.30496764 309.18042973 513.30071236 305.27580976 513.29333818 C301.06302371 513.2886108 296.85028358 513.30111259 292.63751221 513.31135559 C284.38587018 513.32855768 276.13430426 513.32938064 267.88264896 513.32414269 C261.17566309 513.32010219 254.46869973 513.32154312 247.76171494 513.32689095 C246.80733803 513.32763937 245.85296113 513.32838779 244.86966371 513.32915889 C242.93087376 513.33069036 240.99208381 513.33222871 239.05329387 513.33377386 C220.86860315 513.34750413 202.68395545 513.34205762 184.49926572 513.33058865 C167.86340306 513.32065687 151.22765163 513.33359505 134.59180613 513.35752284 C117.51029852 513.38190652 100.42884272 513.39152344 83.34731805 513.38487011 C73.75728075 513.38137612 64.16732899 513.38362179 54.57730484 513.40112114 C46.41302582 513.41583402 38.24889257 513.41649059 30.08461644 513.39905023 C25.91954429 513.39053008 21.75473265 513.38841529 17.589674 513.40370178 C13.77498558 513.41752895 9.96078133 513.41281149 6.14612107 513.39346255 C4.11629505 513.3879151 2.08644451 513.40199056 0.05666506 513.41681665 C-8.03635345 513.35139058 -13.69514972 512.58209722 -20.00117493 507.14041138 C-20.44719055 506.58224731 -20.89320618 506.02408325 -21.35273743 505.44900513 C-21.8142218 504.89341919 -22.27570618 504.33783325 -22.75117493 503.76541138 C-25.6408435 499.33888085 -26.22865496 495.52584593 -26.23500633 490.28536892 C-26.23851241 489.63246259 -26.24201848 488.97955626 -26.2456308 488.30686489 C-26.25494567 486.11583305 -26.25002138 483.92506695 -26.24516296 481.73402405 C-26.24889916 480.148634 -26.25350056 478.56324579 -26.25889361 476.97786051 C-26.27114232 472.61865427 -26.27086096 468.25952468 -26.26850486 463.90030515 C-26.26809718 459.20019238 -26.279131 454.50010434 -26.28862 449.80000305 C-26.30523996 440.59172352 -26.31072994 431.38346959 -26.31184475 422.17517632 C-26.31279451 414.69344129 -26.3169012 407.21171473 -26.323246 399.72998238 C-26.34085917 378.53017057 -26.35008446 357.33037903 -26.34858505 336.13055985 C-26.34850514 334.98743146 -26.34842523 333.84430307 -26.3483429 332.66653442 C-26.34822025 330.94975544 -26.34822025 330.94975544 -26.34809513 329.19829405 C-26.34728165 310.63588191 -26.36643482 292.07355079 -26.39461963 273.51116209 C-26.42331381 254.46348967 -26.43716192 235.41585682 -26.43543208 216.36816221 C-26.4347671 205.66935114 -26.44030689 194.97062507 -26.46178818 184.27183342 C-26.47995417 175.16576611 -26.48438498 166.05982236 -26.47076933 156.95374482 C-26.46421714 152.30514133 -26.46420328 147.65677521 -26.48147583 143.00819397 C-26.4971122 138.756383 -26.49444053 134.50499947 -26.47690757 130.25319953 C-26.47381677 128.71156341 -26.47754758 127.16989612 -26.48862772 125.62829673 C-26.50265541 123.53894049 -26.49223924 121.45110315 -26.47551537 119.36180019 C-26.4759501 118.19952858 -26.47638484 117.03725697 -26.47683275 115.83976501 C-25.86713298 112.23203361 -24.88633829 111.04909581 -21.97773743 108.88650513 C-18.47773743 108.38650513 -18.47773743 108.38650513 -14.97773743 108.88650513 C-12.0705667 111.10513542 -11.137921 112.40595441 -9.97773743 115.88650513 C-9.88188602 117.97375067 -9.84752833 120.0639848 -9.84465885 122.15342808 C-9.84241583 122.79449567 -9.8401728 123.43556326 -9.83786181 124.09605715 C-9.83151087 126.25877273 -9.83228659 128.42142824 -9.83297729 130.58415222 C-9.82984458 132.14449146 -9.82627001 133.70482987 -9.82228988 135.26516718 C-9.81257425 139.56432409 -9.80903855 143.86346772 -9.80644691 148.16263402 C-9.80255837 152.79457114 -9.79292097 157.42649646 -9.78388977 162.0584259 C-9.76893985 170.0878227 -9.75740057 178.11721856 -9.74794197 186.14662361 C-9.73408495 197.75806719 -9.71290017 209.3694889 -9.68951344 220.98091679 C-9.65158138 239.82126726 -9.6166174 258.66162167 -9.58491516 277.50198364 C-9.58301467 278.6302149 -9.58111418 279.75844616 -9.57915609 280.92086624 C-9.55230971 296.94110646 -9.5284398 312.96134974 -9.50577109 328.98159634 C-9.50417379 330.11013079 -9.50257649 331.23866524 -9.50093079 332.40139771 C-9.49854059 334.09214573 -9.49854059 334.09214573 -9.4961021 335.81705029 C-9.46936876 354.58667705 -9.4349851 373.35628046 -9.39427704 392.12588209 C-9.36945498 403.71352542 -9.35115467 415.30114357 -9.34112143 426.88880932 C-9.33375058 434.8226326 -9.31925515 442.75642211 -9.29905719 450.69022305 C-9.28762577 455.27368279 -9.27953422 459.85708792 -9.28006554 464.4405632 C-9.28049088 468.63057397 -9.27186269 472.8204616 -9.25581574 477.01044076 C-9.25163522 478.53190534 -9.25088466 480.05338371 -9.25377984 481.57485128 C-9.25721534 483.63171368 -9.24733826 485.68858579 -9.23665714 487.74542332 C-9.23492089 488.89131194 -9.23318464 490.03720056 -9.23139578 491.21781307 C-9.2490575 494.03986865 -9.2490575 494.03986865 -6.97773743 495.88650513 C-3.7707524 497.00245527 -0.72049023 497.01275814 2.65421963 497.01513958 C3.80862087 497.01836403 4.96302211 497.02158847 6.1524052 497.02491063 C7.42135618 497.02336203 8.69030715 497.02181342 9.99771118 497.0202179 C11.3587847 497.02208582 12.71985769 497.02438645 14.08092982 497.02708322 C17.82476483 497.03320977 21.56857755 497.03306662 25.31241643 497.03188884 C29.34861114 497.03168505 33.38479863 497.03720146 37.42098999 497.04194641 C45.32964366 497.05025796 53.23828988 497.05300147 61.14694756 497.05355879 C67.57367985 497.05403366 74.00040968 497.05608698 80.42714119 497.05925941 C98.6395659 497.06806698 116.85198472 497.07267857 135.06441157 497.07192894 C136.04654488 497.07188898 137.02867819 497.07184903 138.04057312 497.07180786 C139.02390244 497.07176698 140.00723175 497.0717261 141.02035893 497.07168398 C156.96319118 497.07127737 172.90599984 497.08085042 188.84882527 497.09494623 C205.21042728 497.10929842 221.57201777 497.11621707 237.93362623 497.11535245 C247.12283389 497.1150201 256.3120168 497.1177837 265.5012188 497.1285305 C273.32377005 497.13762025 281.14628534 497.13982331 288.96883958 497.13302108 C292.96131233 497.12974828 296.953716 497.12972651 300.94618225 497.13837433 C304.59967836 497.14620669 308.25305024 497.14484153 311.9065432 497.1360902 C313.85715798 497.13381634 315.80777651 497.14140936 317.75837654 497.14932984 C318.91538553 497.14473105 320.07239451 497.14013225 321.26446438 497.1353941 C322.76205655 497.13572015 322.76205655 497.13572015 324.2899031 497.13605279 C327.22926286 496.86759969 329.37691796 496.17779167 332.02226257 494.88650513 C334.9024601 491.34263611 334.2884004 486.79007545 334.24931335 482.44607544 C334.24975143 481.17235832 334.24975143 481.17235832 334.25019836 479.87290955 C334.24880656 477.0700453 334.23325233 474.26744786 334.21757507 471.46463013 C334.21384442 469.51978704 334.21099769 467.57494207 334.20899963 465.63009644 C334.20136735 460.51399537 334.18172227 455.39800806 334.15959167 450.2819519 C334.13912457 445.06030821 334.12999606 439.83864613 334.11991882 434.61697388 C334.09847605 424.37343435 334.06434492 414.1299792 334.02226257 403.88650513 C332.86250916 404.23294067 331.70275574 404.57937622 330.50785828 404.93630981 C328.9671206 405.39378046 327.42634722 405.85113088 325.88554382 406.30838013 C325.1234259 406.53638306 324.36130798 406.76438599 323.57609558 406.9992981 C308.15831039 411.56445656 292.7408443 412.03742796 276.76664734 412.04763794 C275.05872493 412.05227643 273.35080353 412.05730244 271.6428833 412.06268311 C267.04009955 412.07569596 262.4373303 412.08222821 257.83453107 412.08669376 C254.95593846 412.08963803 252.07734972 412.09374495 249.19875908 412.09819794 C240.18221322 412.11183347 231.16567631 412.12152359 222.14912087 412.12539983 C211.75603104 412.12989371 201.36307187 412.14751944 190.97002178 412.17640042 C182.91881019 412.197996 174.86763547 412.2081027 166.81639522 412.20944095 C162.01361889 412.210489 157.21096605 412.21639889 152.40822029 412.23426056 C147.89945817 412.25070805 143.39091296 412.25291303 138.88213158 412.24412155 C137.22811935 412.24334983 135.57409558 412.24771166 133.92011261 412.2575798 C131.66264826 412.27025998 129.40595727 412.26444495 127.14849854 412.2539978 C125.25408697 412.25619764 125.25408697 412.25619764 123.32140446 412.25844193 C119.45907254 411.82301253 116.78961195 410.6538545 114.02226257 407.88650513 C113.43817336 400.76061677 113.43817336 400.76061677 115.42381287 397.78903198 C119.4119577 394.86900138 123.19793873 395.31527204 128.02323914 395.34060669 C129.03819458 395.33026901 130.05315002 395.31993134 131.09886169 395.3092804 C134.45369759 395.27978229 137.80793201 395.2783517 141.16288757 395.27713013 C143.4888881 395.26215327 145.81487797 395.24542718 148.14085388 395.22702026 C154.2630308 395.18327937 160.38506426 395.16333257 166.50737 395.14828491 C172.75460823 395.12873824 179.00169097 395.08676546 185.24882507 395.04666138 C197.50658969 394.97128612 209.76431963 394.92103884 222.02226257 394.88650513 C221.19670868 394.34009369 220.37115479 393.79368225 219.52058411 393.23071289 C217.8974379 392.15323288 217.8974379 392.15323288 216.24150085 391.0539856 C215.16844696 390.34257416 214.09539307 389.63116272 212.98982239 388.89819336 C209.80100506 386.73651619 206.84679792 384.48559299 203.89726257 382.01150513 C203.00780945 381.27158325 202.11835632 380.53166138 201.20195007 379.76931763 C199.02226257 377.88650513 199.02226257 377.88650513 197.02226257 375.88650513 C194.51443257 375.69014281 192.11556967 375.61686771 189.60673523 375.63113403 C188.84233627 375.62751358 188.07793732 375.62389313 187.29037476 375.62016296 C185.62779053 375.6132609 183.96518361 375.61076504 182.3025856 375.61211014 C179.67158356 375.61307302 177.04099274 375.60016159 174.41004944 375.58312988 C166.92893172 375.53678526 159.44785475 375.51224909 151.96659851 375.50564575 C147.39296587 375.50063475 142.81976092 375.47640423 138.24627304 375.44031906 C136.50238486 375.43050958 134.75843791 375.42819538 133.01453018 375.43349075 C130.57474753 375.44055078 128.13624101 375.423302 125.69657898 375.40066528 C124.97539383 375.40883774 124.25420868 375.41701019 123.51116943 375.4254303 C120.08054425 375.36876533 118.31892102 375.1179745 115.57801819 372.97937012 C113.90015614 370.72224265 113.45433356 369.66616157 113.45976257 366.88650513 C113.42689148 365.89650513 113.42689148 365.89650513 113.39335632 364.88650513 C114.38091098 361.74595863 116.33252694 360.6870785 119.02226257 358.88650513 C121.97729492 358.36752319 121.97729492 358.36752319 125.28129578 358.34060669 C126.52220474 358.32088806 127.76311371 358.30116943 129.04162598 358.28085327 C130.38543147 358.27919038 131.72923756 358.27795937 133.07304382 358.27713013 C134.4559726 358.26214078 135.83888353 358.24541203 137.22177124 358.22702026 C140.84999943 358.18341811 144.47798616 358.1633639 148.10643005 358.14828491 C151.81354507 358.12868774 155.52040032 358.08672081 159.2273407 358.04666138 C166.4922447 357.97143687 173.7570394 357.92109892 181.02226257 357.88650513 C180.54232849 357.20546219 180.06239441 356.52441925 179.56791687 355.82273865 C178.93796814 354.92637192 178.30801941 354.03000519 177.65898132 353.10647583 C177.03467224 352.21918289 176.41036316 351.33188995 175.76713562 350.41770935 C169.65906468 341.55702176 165.50170372 332.11868512 162.08476257 321.94900513 C161.6429364 320.63549072 161.6429364 320.63549072 161.19218445 319.29544067 C159.53218722 314.12470704 158.62883586 309.28012773 158.02226257 303.88650513 C156.83149109 303.90745239 155.6407196 303.92839966 154.41386414 303.94998169 C149.99341368 304.02241475 145.57301562 304.06831685 141.15214539 304.10623169 C139.23929522 304.12633964 137.32650646 304.15363019 135.41386414 304.18826294 C132.66338446 304.23681762 129.9137178 304.2594817 127.16288757 304.27713013 C126.30858154 304.29777527 125.45427551 304.31842041 124.57408142 304.33969116 C118.6303016 304.34193438 118.6303016 304.34193438 115.4863739 301.98709106 C113.91471557 299.73220557 113.45444478 298.60921563 113.45976257 295.88650513 C113.42689148 294.89650513 113.42689148 294.89650513 113.39335632 293.88650513 C114.40679572 290.66364197 116.20118287 289.67438392 119.02226257 287.88650513 C122.01570189 287.54359713 124.62348868 287.41733858 127.60429382 287.49588013 C128.41847275 287.50153992 129.23265167 287.50719971 130.07150269 287.51303101 C132.6598661 287.53533739 135.24682098 287.58552068 137.83476257 287.63650513 C139.59450814 287.65657765 141.3542755 287.67482711 143.11405945 287.69119263 C147.41733262 287.73518306 151.71955918 287.80416886 156.02226257 287.88650513 C155.69226257 287.22650513 155.36226257 286.56650513 155.02226257 285.88650513 C154.92469502 283.59653727 154.89249742 281.3035456 154.89726257 279.01150513 C154.89468445 277.77658325 154.89210632 276.54166138 154.88945007 275.26931763 C154.99652395 272.5420829 155.31040674 270.47590723 156.02226257 267.88650513 C154.95789978 267.90221558 153.89353699 267.91792603 152.79692078 267.93411255 C148.83671172 267.98853567 144.87653554 268.02290005 140.9160614 268.05130005 C139.20409073 268.06635853 137.49215846 268.08680968 135.78031921 268.11282349 C133.31529753 268.14933702 130.85078722 268.16626075 128.38554382 268.17947388 C127.24306938 268.20269966 127.24306938 268.20269966 126.07751465 268.22639465 C121.52164472 268.22782771 118.67376224 267.65080619 115.02226257 264.88650513 C113.44328424 263.30752679 113.77682748 261.69287941 113.70976257 259.51150513 C113.67237976 258.72002075 113.63499695 257.92853638 113.59648132 257.11306763 C114.02226257 254.88650513 114.02226257 254.88650513 115.47758484 253.26565552 C119.31061336 251.18825188 122.87254096 251.51577606 127.16288757 251.59353638 C128.04506958 251.59778122 128.92725159 251.60202606 129.83616638 251.60639954 C132.6485114 251.62316674 135.46013484 251.66081514 138.27226257 251.69900513 C140.18110638 251.71405451 142.08996143 251.72774247 143.99882507 251.74002075 C148.67358147 251.77306385 153.34779975 251.82483258 158.02226257 251.88650513 C158.40861877 250.28452271 158.40861877 250.28452271 158.80278015 248.650177 C159.15307526 247.21848511 159.50359168 245.78684736 159.85429382 244.35525513 C160.02255676 243.65497192 160.1908197 242.95468872 160.36418152 242.23318481 C164.11912752 226.98449436 171.14908917 212.12639908 181.02226257 199.88650513 C180.25662491 199.8828595 179.49098724 199.87921387 178.70214844 199.87545776 C171.47779544 199.83755135 164.25395662 199.78066952 157.02993488 199.70260239 C153.31617814 199.66313511 149.60265821 199.63094333 145.88871765 199.61550903 C142.30280908 199.60033693 138.71755161 199.56588318 135.13193321 199.51819611 C133.76569982 199.50338772 132.39937346 199.49546441 131.03306007 199.49462128 C129.11569461 199.49224864 127.19842068 199.46286758 125.28129578 199.43240356 C124.19097549 199.42352112 123.10065521 199.41463867 121.97729492 199.40548706 C118.33931313 198.76656112 116.64463374 197.43900427 114.02226257 194.88650513 C113.39335632 192.88650513 113.39335632 192.88650513 113.45976257 190.88650513 C113.45847351 190.22650513 113.45718445 189.56650513 113.45585632 188.88650513 C114.29857329 185.91084246 115.58661572 184.78618031 118.02226257 182.88650513 C120.68217882 182.529223 122.91840762 182.4117072 125.56962585 182.48342896 C126.32467911 182.48754791 127.07973236 182.49166687 127.85766602 182.49591064 C129.49519053 182.50665889 131.13267571 182.52618626 132.77000809 182.55347633 C135.36941644 182.59395435 137.96744772 182.6052962 140.56715393 182.60810852 C147.95701509 182.61985845 155.34596517 182.67203057 162.7351532 182.77297974 C167.25946063 182.83273182 171.7822047 182.84817829 176.30686569 182.83682823 C178.02361977 182.84126061 179.74042067 182.86235181 181.45674515 182.90101051 C192.70692629 183.32265121 192.70692629 183.32265121 202.21708679 177.95169067 C202.94950592 177.14950607 203.68192505 176.34732147 204.4365387 175.52082825 C207.6861973 172.21009161 211.26488304 169.83325643 215.14726257 167.32400513 C215.82427153 166.88258525 216.50128048 166.44116537 217.19880486 165.98636913 C218.80209911 164.94607382 220.41152117 163.91523197 222.02226257 162.88650513 C220.7282251 162.8828595 219.43418762 162.87921387 218.10093689 162.87545776 C205.91706326 162.83854677 193.7334433 162.78081671 181.54976273 162.70260239 C175.28570239 162.66306149 169.02178404 162.63090538 162.75761414 162.61550903 C156.714455 162.60038615 150.67168602 162.56601806 144.62870026 162.51819611 C142.32102089 162.50333722 140.01328583 162.49546154 137.70555878 162.49462128 C134.4776937 162.49226348 131.2509173 162.4652786 128.02323914 162.43240356 C127.06514343 162.43743393 126.10704773 162.44246429 125.11991882 162.44764709 C118.64465723 162.34533947 118.64465723 162.34533947 115.43260193 159.97738647 C113.9180505 157.73200679 113.45451514 156.57319074 113.45976257 153.88650513 C113.43784851 153.22650513 113.41593445 152.56650513 113.39335632 151.88650513 C114.39049412 148.71548305 116.28354766 147.68101251 119.02226257 145.88650513 C122.33867264 145.38872719 122.33867264 145.38872719 126.19078064 145.39202881 C127.25725472 145.38478556 127.25725472 145.38478556 128.34527373 145.37739599 C130.72268018 145.36614398 133.09900634 145.38342961 135.47636414 145.40066528 C137.1834899 145.3985187 138.89061423 145.39463994 140.59773254 145.38916016 C145.23493746 145.37946314 149.87175749 145.39478161 154.5089159 145.41506624 C159.37499347 145.43266302 164.24105957 145.42911142 169.10716248 145.42834473 C177.2918183 145.4302187 185.47632601 145.44758312 193.66093445 145.47488403 C203.08618049 145.50620984 212.51126364 145.51688452 221.93655801 145.51541293 C232.00417074 145.51405391 242.07172167 145.52799538 252.13931561 145.54630613 C255.02061135 145.55054223 257.90189693 145.55198494 260.7831955 145.55278397 C265.3436043 145.55481661 269.90388016 145.567216 274.46424484 145.58711624 C276.12448434 145.59288309 277.78473915 145.59543422 279.44498825 145.59426117 C294.19185169 145.58779368 308.66221891 146.57890696 322.95976257 150.44900513 C323.82021179 150.67007935 324.68066101 150.89115356 325.56718445 151.118927 C331.66114291 152.7059453 331.66114291 152.7059453 334.02226257 153.88650513 C334.35226257 139.36650513 334.68226257 124.84650513 335.02226257 109.88650513 C327.27435242 109.93871216 327.27435242 109.93871216 319.36991882 109.99197388 C316.08410012 110.00731497 312.79832601 110.02175771 309.51249695 110.0329895 C304.3049647 110.05087496 299.09759175 110.07196037 293.8901825 110.11282349 C289.6885854 110.14558496 285.4871593 110.1633933 281.28544426 110.17113686 C279.68798064 110.17665039 278.09052564 110.18741655 276.49313545 110.2036953 C256.0887657 110.40323268 256.0887657 110.40323268 248.64726257 103.57400513 C248.0207782 103.02099731 247.39429382 102.4679895 246.74882507 101.89822388 C242.53887655 96.99296712 241.58563418 92.34832095 241.6816864 86.04519653 C241.68124832 85.28354187 241.68081024 84.52188721 241.68035889 83.7371521 C241.68243723 81.23719011 241.70572237 78.73791144 241.72929382 76.23806763 C241.73489319 74.4978675 241.73916168 72.75766262 241.74215698 71.01745605 C241.75357896 66.45039681 241.78302319 61.88362647 241.81626892 57.31668091 C241.84702703 52.65119331 241.86067457 47.98565877 241.8757782 43.32009888 C241.90789556 34.17544111 241.95905972 25.0309972 242.02226257 15.88650513 C210.89577808 15.96840392 179.7693435 16.06041201 148.642933 16.16655674 C144.96916486 16.17907579 141.29539642 16.19150853 137.62162781 16.20388794 C136.89023874 16.20635393 136.15884967 16.20881993 135.4052973 16.21136065 C123.55877785 16.2510972 111.71224884 16.28384057 99.86570159 16.31400494 C87.71236535 16.34510594 75.55906969 16.38370954 63.40577906 16.42929518 C55.90500942 16.45719274 48.40426951 16.47922028 40.9034619 16.49376763 C35.15431742 16.50554422 29.40525002 16.52775322 23.65615463 16.55388832 C21.29586921 16.56297636 18.9355679 16.56865718 16.57526588 16.57071877 C13.35829205 16.57403259 10.14159939 16.5894865 6.92468262 16.60803223 C5.98596449 16.60609749 5.04724637 16.60416276 4.08008224 16.60216939 C-2.99605678 16.51430512 -2.99605678 16.51430512 -8.97773743 19.88650513 C-9.09107259 21.9457239 -9.13459769 24.00880797 -9.15132141 26.07107544 C-9.15800842 26.71667923 -9.16469543 27.36228302 -9.17158508 28.02745056 C-9.18566654 29.43412617 -9.19755065 30.84082504 -9.20753288 32.24753571 C-9.22391036 34.47540149 -9.247149 36.70309626 -9.27243042 38.93087769 C-9.34327895 45.26674904 -9.40321642 51.60269236 -9.45454407 57.93875122 C-9.48639469 61.81090475 -9.52769223 65.68286574 -9.57473946 69.55486298 C-9.59073118 71.02997103 -9.60306581 72.5051235 -9.61164665 73.98029327 C-9.62384526 76.0485122 -9.64801539 78.11628183 -9.67475891 80.18435669 C-9.68506638 81.36048523 -9.69537384 82.53661377 -9.70599365 83.74838257 C-10.05837961 87.81776858 -10.92032556 90.71160305 -13.66523743 93.76150513 C-17.07918128 95.42234267 -19.36530966 94.8060322 -22.97773743 93.88650513 C-24.66633606 92.77546692 -24.66633606 92.77546692 -25.97773743 90.88650513 C-26.37214661 87.73228455 -26.37214661 87.73228455 -26.3976593 83.78811646 C-26.40612885 83.06901093 -26.41459839 82.3499054 -26.42332458 81.60900879 C-26.44674496 79.22867182 -26.44771514 76.84897994 -26.44648743 74.46853638 C-26.45358923 72.81046796 -26.46128826 71.15240199 -26.46955872 69.49433899 C-26.48301739 66.01488425 -26.48456758 62.53565638 -26.47871399 59.05618286 C-26.47283577 54.61184371 -26.5033238 50.16860375 -26.54383087 45.72447681 C-26.56977883 42.29704493 -26.57257854 38.86987457 -26.56893921 35.44235802 C-26.57062582 33.80499206 -26.58022398 32.16761343 -26.5980835 30.53034401 C-26.75904583 13.94030593 -26.75904583 13.94030593 -20.97773743 7.88650513 C-14.66666851 1.48559638 -8.60452163 0.54210626 0 0 Z M258.02226257 28.88650513 C257.9527769 36.78807118 257.89945893 44.68950976 257.86682606 52.59130573 C257.85116452 56.26037189 257.82991782 59.92922913 257.79594421 63.59817505 C257.76336743 67.1383946 257.74541323 70.67841312 257.73763084 74.21877098 C257.72938333 76.22798168 257.7059612 78.2371114 257.68237305 80.24620056 C257.68214645 81.46723984 257.68191986 82.68827911 257.6816864 83.94631958 C257.67502457 85.02331619 257.66836273 86.10031281 257.66149902 87.20994568 C257.80514892 89.8954271 257.80514892 89.8954271 259.35604858 91.69526672 C262.71333369 94.09551481 265.79755511 94.00851943 269.77885437 94.00003052 C270.95985214 93.99995499 272.14084991 93.99987946 273.3576355 93.99980164 C275.27023918 93.99205971 275.27023918 93.99205971 277.22148132 93.98416138 C278.52680313 93.98274643 279.83212494 93.98133148 281.17700195 93.97987366 C284.64415914 93.97605893 288.11127431 93.96623757 291.57841492 93.95516968 C295.1176344 93.9449331 298.65686068 93.94037122 302.1960907 93.93533325 C309.13816523 93.92461436 316.08021188 93.90755047 323.02226257 93.88650513 C319.20020811 89.32149365 315.25023252 84.96863768 311.03276062 80.76760864 C310.46778366 80.20087936 309.9028067 79.63415009 309.32070923 79.05024719 C307.47761758 77.20280139 305.6309492 75.35898131 303.78398132 73.51541138 C302.49443196 72.22518769 301.20503102 70.93481565 299.91577148 69.64430237 C297.22689653 66.95395968 294.53623724 64.26541803 291.84428406 61.57815552 C288.38615624 58.12575901 284.93258346 54.66884602 281.48030376 51.21060276 C278.82537797 48.5520757 276.16809036 45.89591971 273.51006508 43.24049187 C272.23461728 41.96571277 270.95991636 40.69018597 269.68596458 39.41391182 C267.91464052 37.64006469 266.14017167 35.86942648 264.36479187 34.09963989 C263.57080994 33.30262161 263.57080994 33.30262161 262.76078796 32.48950195 C260.73613332 29.99425862 260.73613332 29.99425862 258.02226257 28.88650513 Z M389.02226257 364.88650513 C387.48988706 366.4403366 387.48988706 366.4403366 385.89726257 368.44900513 C382.2856668 372.71448982 378.31368236 376.31961076 374.02226257 379.88650513 C375.68089762 384.21155348 378.89330357 386.98069338 382.14726257 390.13650513 C382.71058289 390.690802 383.2739032 391.24509888 383.85429382 391.81619263 C385.23912285 393.17754997 386.63009462 394.53265372 388.02226257 395.88650513 C390.9545645 394.56529684 393.00891156 393.14012316 395.25663757 390.84744263 C395.83027039 390.2673645 396.4039032 389.68728638 396.99491882 389.08963013 C397.87470398 388.18470825 397.87470398 388.18470825 398.77226257 387.26150513 C399.37425476 386.6504895 399.97624695 386.03947388 400.59648132 385.40994263 C402.07631563 383.90661889 403.54990934 382.39715657 405.02226257 380.88650513 C403.35763219 376.60008189 400.2315042 373.80033296 397.02226257 370.63650513 C396.20241882 369.80505981 396.20241882 369.80505981 395.36601257 368.95681763 C392.69625489 365.89434738 392.69625489 365.89434738 389.02226257 364.88650513 Z M419.31669617 388.36502075 C418.1795544 389.50248039 417.04793029 390.64547231 415.92070007 391.79275513 C415.32423676 392.39204834 414.72777344 392.99134155 414.11323547 393.60879517 C412.20318346 395.5300712 410.30018931 397.45817408 408.39726257 399.38650513 C407.10605376 400.68774086 405.81439283 401.98852814 404.52226257 403.28884888 C401.35032005 406.48288122 398.18469186 409.68305451 395.02226257 412.88650513 C399.74109932 418.54731588 404.7676538 423.80763822 409.96366882 429.03103638 C410.80896652 429.88203415 411.65426422 430.73303192 412.525177 431.6098175 C414.30300068 433.39704087 416.08224638 435.1828507 417.86283875 436.96731567 C420.58662519 439.70087443 423.29956518 442.44491317 426.01249695 445.1892395 C427.74556164 446.92882884 429.4792637 448.66778348 431.21366882 450.40603638 C432.02211746 451.22683182 432.8305661 452.04762726 433.66351318 452.89329529 C434.4245787 453.65135971 435.18564423 454.40942413 435.96977234 455.19046021 C436.63340286 455.85773636 437.29703339 456.52501251 437.98077393 457.21250916 C443.37495912 461.6356757 449.36766611 461.48610688 456.02226257 460.88650513 C461.85723506 459.09112898 465.49479442 454.70640652 469.02226257 449.88650513 C470.03807575 446.8390656 470.32334049 444.46122303 470.45976257 441.26150513 C470.52034851 440.2792395 470.58093445 439.29697388 470.64335632 438.28494263 C468.99395759 429.25993069 461.02169728 422.45378074 454.75663757 416.25759888 C453.88202881 415.38249161 453.00742004 414.50738434 452.10630798 413.60575867 C450.27101977 411.7727969 448.4320722 409.94349246 446.58964539 408.1177063 C444.69954607 406.2434943 442.81321643 404.36639414 440.93339539 402.48196411 C438.21344113 399.75562832 435.48649129 397.03651896 432.75663757 394.32009888 C431.9108313 393.4733812 431.06502502 392.62666351 430.19358826 391.75428772 C429.41227539 390.98250687 428.63096252 390.21072601 427.82597351 389.41555786 C427.13791626 388.732108 426.44985901 388.04865814 425.74095154 387.34449768 C422.74771692 384.80528676 422.1981876 385.7253437 419.31669617 388.36502075 Z " fill="#000000" transform="translate(25.977737426757813,-0.886505126953125)"/>
<path d="M0 0 C20.04475704 16.04716244 33.28094686 38.54076303 37 64 C38.7013374 92.65990853 34.03925819 118.52743296 15 141 C14.3090625 141.825 13.618125 142.65 12.90625 143.5 C-2.08416993 160.81287936 -24.89027321 173.92444865 -48 176 C-61.51863051 176.77645468 -74.91525012 176.79334885 -88 173 C-89.70929688 172.50693359 -89.70929688 172.50693359 -91.453125 172.00390625 C-109.77404329 166.06809304 -131.35901983 153.42007793 -141 136 C-141.2869879 132.39925846 -141.4174782 129.93318656 -139.9375 126.625 C-137.03326481 124.18918984 -134.74042509 124.06449009 -131 124 C-127.09703869 125.36603646 -125.39218731 127.75819073 -123.0625 131 C-111.74535827 146.04053035 -93.27360363 154.7442533 -75.26953125 158.58203125 C-52.58041343 161.48255169 -30.42074388 157.44231212 -12 143.4375 C-10.65677537 142.30327806 -9.32289656 141.15786721 -8 140 C-7.32839844 139.47019531 -6.65679687 138.94039062 -5.96484375 138.39453125 C7.94278257 127.11300778 17.90376481 107.73065594 20 90 C21.96142814 65.02681671 16.62042047 43.29386172 0.4921875 23.83203125 C-9.66322847 12.29178583 -22.40551333 4.68158503 -37 0 C-37.96808594 -0.3196875 -38.93617188 -0.639375 -39.93359375 -0.96875 C-55.6069646 -5.37115326 -72.69958306 -4.13958757 -88 1 C-89.05316406 1.350625 -90.10632813 1.70125 -91.19140625 2.0625 C-111.14476178 9.55476388 -126.6041208 25.40118141 -135.56640625 44.46484375 C-137.88448007 50.18107483 -139.57380494 55.99617885 -141 62 C-141.19335938 62.7528125 -141.38671875 63.505625 -141.5859375 64.28125 C-143.32438965 75.69599239 -142.66383285 87.88083974 -139.65625 98.9921875 C-138.68485008 103.44443712 -138.05384332 107.4624954 -140.5 111.4375 C-144.0249641 113.64060256 -146.9541195 113.91762238 -151 113 C-156.51385051 108.67833338 -157.38008393 100.42877718 -158.56640625 93.8671875 C-161.62224297 66.61242756 -156.30805451 39.31236769 -139.2421875 17.3671875 C-105.0827921 -24.76046978 -43.39460328 -32.97789528 0 0 Z " fill="#000000" transform="translate(375,200)"/>
<path d="M0 0 C5.41092995 5.07841471 8.03533912 11.60648597 8.375 18.9375 C8.49988958 27.72972655 3.69889087 34.21438163 -2.15432739 40.2835083 C-5.43702536 43.58597489 -8.77439431 46.82915363 -12.125 50.0625 C-14.81445044 52.68546533 -17.49726248 55.31516553 -20.1796875 57.9453125 C-20.81662537 58.56724991 -21.45356323 59.18918732 -22.10980225 59.82997131 C-25.91109595 63.55847255 -29.53598542 67.36749169 -32.97314453 71.43847656 C-38.0983795 77.45548282 -43.97835816 82.27200195 -52.00390625 83.28515625 C-61.00495613 83.73348441 -67.5684921 81.30444803 -74.34643555 75.29589844 C-77.14850608 72.69411046 -79.84803859 69.99762258 -82.52075195 67.26367188 C-84.19315044 65.55673286 -85.88852094 63.87535727 -87.58789062 62.1953125 C-88.6733161 61.10299261 -89.7573511 60.00928889 -90.83984375 58.9140625 C-91.33983383 58.41903229 -91.83982391 57.92400208 -92.35496521 57.41397095 C-97.47184805 52.12394704 -99.87479164 46.31659782 -100.25 38.9375 C-99.69101005 31.52480719 -97.42362236 26.28440158 -92.25 20.9375 C-86.57540752 16.24979317 -80.60992739 14.63131969 -73.375 14.9375 C-65.88290879 15.88557327 -60.10782015 20.47057779 -54.25 24.9375 C-54.01893555 24.38263916 -53.78787109 23.82777832 -53.54980469 23.25610352 C-50.95991614 18.63623658 -46.76258785 15.11819799 -43.02929688 11.40112305 C-41.51016196 9.88514087 -40.00481847 8.35634968 -38.5 6.82617188 C-37.5268538 5.85075159 -36.5529202 4.87611609 -35.578125 3.90234375 C-34.7005957 3.0218335 -33.82306641 2.14132324 -32.91894531 1.23413086 C-23.03186069 -7.27371812 -10.64905275 -6.75805271 0 0 Z M-23.94604492 15.46264648 C-25.86871166 17.32263711 -27.75208251 19.21493721 -29.625 21.125 C-30.29474854 21.80046875 -30.96449707 22.4759375 -31.65454102 23.171875 C-34.94117922 26.50711191 -38.15330193 29.86826932 -41.1875 33.4375 C-43.44518841 36.07725876 -45.78506542 38.55205612 -48.3125 40.9375 C-48.92222656 41.515 -49.53195312 42.0925 -50.16015625 42.6875 C-53.10662105 44.44987147 -54.86536047 44.43499099 -58.25 43.9375 C-61.13671875 42.07421875 -61.13671875 42.07421875 -63.9375 39.625 C-65.33548828 38.42423828 -65.33548828 38.42423828 -66.76171875 37.19921875 C-68.19362759 35.89768779 -69.60822839 34.57520084 -70.96875 33.19921875 C-72.74044729 31.45452904 -73.7577363 31.07991507 -76.25 30.9375 C-80.53611247 32.53264784 -80.53611247 32.53264784 -83.25 35.9375 C-83.70696935 40.14718543 -83.762427 42.21444311 -81.27807617 45.7199707 C-79.924198 47.02840942 -79.924198 47.02840942 -78.54296875 48.36328125 C-78.06177078 48.83694626 -77.58057281 49.31061127 -77.08479309 49.79862976 C-75.55140249 51.29963691 -73.99518299 52.77426227 -72.4375 54.25 C-71.40145204 55.25948678 -70.36692903 56.27054115 -69.33398438 57.28320312 C-63.28412752 63.83063227 -63.28412752 63.83063227 -55.5 67.4375 C-49.57974442 66.52669145 -46.13297741 62.04875991 -42.421875 57.61328125 C-36.62702934 50.94033555 -30.21616863 44.83700093 -23.9375 38.625 C-21.39685389 36.11096083 -18.85955613 33.59361021 -16.32421875 31.07421875 C-15.74403488 30.50233322 -15.16385101 29.93044769 -14.56608582 29.3412323 C-9.88783066 24.90678243 -9.88783066 24.90678243 -7.875 19 C-8.00486818 15.87930244 -8.00486818 15.87930244 -9.9375 13.625 C-15.54809034 9.53078543 -19.0276847 11.0398746 -23.94604492 15.46264648 Z " fill="#000000" transform="translate(361.25,240.0625)"/>
<path d="M0 0 C0.77470642 -0.01283524 1.54941284 -0.02567047 2.34759521 -0.03889465 C3.17680481 -0.04628159 4.0060144 -0.05366852 4.86035156 -0.0612793 C5.72356018 -0.06935104 6.5867688 -0.07742279 7.47613525 -0.08573914 C9.30177825 -0.09955166 11.12744675 -0.11028644 12.953125 -0.11816406 C14.81127543 -0.12967616 16.66939298 -0.15011582 18.52734375 -0.1796875 C21.2219067 -0.22255337 23.91548912 -0.23855939 26.61035156 -0.2487793 C27.84202057 -0.27504143 27.84202057 -0.27504143 29.09857178 -0.30183411 C34.85323411 -0.28045048 39.19027863 0.95533264 44.00097656 4.17700195 C47.69040143 8.0556281 49.10290919 11.12018406 49.19384766 16.4296875 C49.20991058 17.28455246 49.22597351 18.13941742 49.24252319 19.02018738 C49.28720709 22.93434692 49.32805409 26.84833992 49.35107422 30.76269531 C49.36760484 32.82172979 49.39485644 34.88070757 49.43310547 36.93945312 C49.48813007 39.91867641 49.50978906 42.89655633 49.52441406 45.8762207 C49.54708344 46.78796555 49.56975281 47.69971039 49.59310913 48.63908386 C49.5722822 55.00126853 48.12469149 59.27097073 44.00097656 64.17700195 C38.55069808 68.29794422 33.21463344 68.34422426 26.57910156 68.38012695 C25.76028503 68.38582703 24.94146851 68.3915271 24.09783936 68.3973999 C22.36634608 68.4068328 20.63483498 68.41337708 18.90332031 68.41723633 C16.27408918 68.42691686 13.64564858 68.4579455 11.01660156 68.48950195 C9.32910617 68.49603533 7.64160523 68.50128449 5.95410156 68.50512695 C5.17673645 68.51747375 4.39937134 68.52982056 3.59844971 68.5425415 C-2.52176529 68.51796233 -8.21278438 67.50327365 -13.05761719 63.45825195 C-13.51265625 62.87043945 -13.96769531 62.28262695 -14.43652344 61.67700195 C-14.90960938 61.08918945 -15.38269531 60.50137695 -15.87011719 59.89575195 C-17.77582976 56.99432105 -18.12820192 54.45209034 -18.16015625 51.07617188 C-18.16976379 50.25489304 -18.17937134 49.4336142 -18.18927002 48.58744812 C-18.1935199 47.70305557 -18.19776978 46.81866302 -18.20214844 45.9074707 C-18.20784851 44.9937117 -18.21354858 44.0799527 -18.21942139 43.13850403 C-18.22886761 41.20432695 -18.23540387 39.27013381 -18.23925781 37.3359375 C-18.24895217 34.3861866 -18.27997442 31.43713588 -18.31152344 28.48754883 C-18.31805492 26.60669358 -18.32330482 24.72583336 -18.32714844 22.8449707 C-18.33949524 21.96665085 -18.35184204 21.08833099 -18.36456299 20.18339539 C-18.34303869 14.22524501 -17.45263234 9.89248095 -13.31542969 5.3137207 C-12.73664062 4.83547852 -12.15785156 4.35723633 -11.56152344 3.86450195 C-10.9853125 3.37336914 -10.40910156 2.88223633 -9.81542969 2.3762207 C-6.74030126 0.34597462 -3.6239843 0.0526507 0 0 Z M-1.99902344 17.17700195 C-2.09989556 19.68624349 -2.13874376 22.16736579 -2.13183594 24.67700195 C-2.13279266 25.42788086 -2.13374939 26.17875977 -2.13473511 26.95239258 C-2.13541682 28.54288822 -2.13356316 30.13338663 -2.12939453 31.72387695 C-2.12404611 34.1666485 -2.12933978 36.60923617 -2.13574219 39.05200195 C-2.1350814 40.59366903 -2.13380024 42.13533599 -2.13183594 43.67700195 C-2.13386017 44.41241211 -2.1358844 45.14782227 -2.13796997 45.90551758 C-2.42958857 49.32946538 -2.42958857 49.32946538 -0.99902344 52.17700195 C1.43758102 52.27782959 3.84522357 52.31672799 6.28222656 52.30981445 C7.01090942 52.31077118 7.73959229 52.31172791 8.49035645 52.31271362 C10.03377366 52.31339531 11.57719373 52.31154183 13.12060547 52.30737305 C15.49095056 52.30202458 17.86110615 52.30731837 20.23144531 52.3137207 C21.72753948 52.31305992 23.22363354 52.31177875 24.71972656 52.30981445 C25.43326294 52.31183868 26.14679932 52.31386292 26.88195801 52.31594849 C30.22584085 52.59348846 30.22584085 52.59348846 33.00097656 51.17700195 C33.08949185 48.58340874 33.11623601 46.01660504 33.09863281 43.4230957 C33.09651039 42.25992577 33.09651039 42.25992577 33.09434509 41.07325745 C33.08873002 38.58696701 33.07617503 36.10076535 33.06347656 33.61450195 C33.0584635 31.93286263 33.05390026 30.25122189 33.04980469 28.56958008 C33.03875569 24.43868629 33.02148101 20.30785919 33.00097656 16.17700195 C28.17716854 16.15235005 23.3533969 16.13416503 18.52954102 16.12207031 C16.88728192 16.11703021 15.24502733 16.11019817 13.6027832 16.1015625 C11.24722177 16.0894827 8.89171948 16.08377057 6.53613281 16.0793457 C5.7975856 16.07418442 5.05903839 16.06902313 4.29811096 16.06370544 C0.86131162 15.75074476 0.86131162 15.75074476 -1.99902344 17.17700195 Z " fill="#000000" transform="translate(68.9990234375,242.822998046875)"/>
<path d="M0 0 C0.86132034 -0.01283524 1.72264069 -0.02567047 2.61006165 -0.03889465 C3.53820175 -0.04628159 4.46634186 -0.05366852 5.42260742 -0.0612793 C6.38075851 -0.06935104 7.33890961 -0.07742279 8.32609558 -0.08573914 C10.35442297 -0.09956998 12.38277353 -0.1102966 14.41113281 -0.11816406 C17.50590318 -0.13537474 20.59960454 -0.17926974 23.6940918 -0.22338867 C25.66608916 -0.23351617 27.63809559 -0.24203209 29.61010742 -0.2487793 C30.99320854 -0.27504143 30.99320854 -0.27504143 32.4042511 -0.30183411 C38.02720614 -0.28294254 41.26986193 0.39557494 45.71557617 4.17700195 C49.09595807 8.01419222 50.82806182 10.34822258 50.89257812 15.43969727 C50.91183098 16.7618222 50.91183098 16.7618222 50.93147278 18.11065674 C50.93885971 19.06583191 50.94624664 20.02100708 50.95385742 21.00512695 C50.96192917 21.98688904 50.97000092 22.96865112 50.97831726 23.98016357 C50.99216409 26.06154613 51.00288356 28.14295145 51.01074219 30.22436523 C51.02793233 33.40042494 51.07181073 36.57543769 51.1159668 39.7512207 C51.12609567 41.77334846 51.13461116 43.79548508 51.14135742 45.81762695 C51.15886551 46.7647052 51.1763736 47.71178345 51.19441223 48.68756104 C51.17579831 54.3757974 50.55411103 57.68443593 46.71557617 62.17700195 C42.77355286 65.73443763 39.85176905 67.27694881 34.5546875 67.36987305 C33.71984329 67.38593597 32.88499908 67.4019989 32.02485657 67.41854858 C28.20229082 67.46324745 24.37989537 67.50408027 20.55712891 67.52709961 C18.54659424 67.54362855 16.53611759 67.57087796 14.52587891 67.60913086 C11.61614725 67.66417143 8.70779105 67.68581675 5.79760742 67.70043945 C4.90773636 67.72310883 4.0178653 67.7457782 3.10102844 67.76913452 C-3.18772496 67.74806343 -7.5543515 66.43393468 -12.28442383 62.17700195 C-16.73009632 57.14882942 -16.8749432 51.79302411 -16.81567383 45.33325195 C-16.81950073 44.40532837 -16.82332764 43.47740479 -16.82727051 42.5213623 C-16.82998086 40.56818551 -16.82268137 38.61497188 -16.8059082 36.66186523 C-16.78448581 33.68561271 -16.80573958 30.71177385 -16.83129883 27.7355957 C-16.8286554 25.8306425 -16.8235301 23.92569079 -16.81567383 22.02075195 C-16.82377075 21.13826782 -16.83186768 20.25578369 -16.84020996 19.34655762 C-16.75158701 13.4580861 -15.67954292 10.01870989 -12.28442383 5.17700195 C-8.34186923 1.52292696 -5.34383043 0.06950197 0 0 Z M-0.28442383 16.17700195 C-0.28442383 27.72700195 -0.28442383 39.27700195 -0.28442383 51.17700195 C11.26557617 51.17700195 22.81557617 51.17700195 34.71557617 51.17700195 C34.71557617 39.62700195 34.71557617 28.07700195 34.71557617 16.17700195 C23.16557617 16.17700195 11.61557617 16.17700195 -0.28442383 16.17700195 Z " fill="#000000" transform="translate(67.284423828125,350.822998046875)"/>
<path d="M0 0 C0.93029526 -0.00145523 1.86059052 -0.00291046 2.81907654 -0.00440979 C4.77647041 -0.00275701 6.73387813 0.00873429 8.69116211 0.02954102 C11.67813549 0.05854076 14.66333633 0.05012754 17.65039062 0.03710938 C19.55860233 0.04334638 21.46680846 0.05173701 23.375 0.0625 C24.26264542 0.05956436 25.15029083 0.05662872 26.06483459 0.05360413 C31.85829989 0.14131163 36.35118242 0.91040456 40.765625 5.03125 C43.70530278 8.87544402 45.23721554 10.95426952 45.2980957 15.75878906 C45.31734856 17.080914 45.31734856 17.080914 45.33699036 18.42974854 C45.34437729 19.38492371 45.35176422 20.34009888 45.359375 21.32421875 C45.36744675 22.30598083 45.37551849 23.28774292 45.38383484 24.29925537 C45.39768167 26.38063793 45.40840114 28.46204325 45.41625977 30.54345703 C45.4334499 33.71951673 45.47732831 36.89452949 45.52148438 40.0703125 C45.53161325 42.09244026 45.54012874 44.11457687 45.546875 46.13671875 C45.56438309 47.083797 45.58189117 48.03087524 45.59992981 49.00665283 C45.58132128 54.69324133 44.96313559 58.00764098 41.12109375 62.49609375 C37.33504945 65.83141849 34.99464797 67.60762502 29.96606445 67.6730957 C28.67881218 67.69234856 28.67881218 67.69234856 27.36555481 67.71199036 C25.9703083 67.72307076 25.9703083 67.72307076 24.546875 67.734375 C23.58968063 67.74244675 22.63248627 67.75051849 21.64628601 67.75883484 C19.61617853 67.77268247 17.5860477 67.78340157 15.5559082 67.79125977 C12.46324914 67.80842911 9.37167113 67.85230407 6.27929688 67.89648438 C4.30599744 67.90661516 2.33268891 67.91513006 0.359375 67.921875 C-0.56066818 67.93938309 -1.48071136 67.95689117 -2.42863464 67.97492981 C-8.13500698 67.95582714 -12.52026142 67.39870103 -16.87890625 63.49609375 C-21.80239835 57.98053081 -22.62630671 52.78792189 -22.54296875 45.58984375 C-22.5501442 44.20363831 -22.5501442 44.20363831 -22.5574646 42.78942871 C-22.56084885 40.84641811 -22.55175034 38.90334941 -22.53076172 36.96044922 C-22.50397406 34.00357883 -22.530559 31.05050376 -22.5625 28.09375 C-22.55919564 26.19660629 -22.55278886 24.29946492 -22.54296875 22.40234375 C-22.5530899 21.52815796 -22.56321106 20.65397217 -22.57363892 19.7532959 C-22.45638141 13.54501645 -21.06108415 9.17610087 -16.87890625 4.49609375 C-11.84065069 0.03005764 -6.47481018 -0.08213204 0 0 Z M-5.87890625 16.49609375 C-5.87890625 28.04609375 -5.87890625 39.59609375 -5.87890625 51.49609375 C5.67109375 51.49609375 17.22109375 51.49609375 29.12109375 51.49609375 C29.12109375 39.94609375 29.12109375 28.39609375 29.12109375 16.49609375 C17.57109375 16.49609375 6.02109375 16.49609375 -5.87890625 16.49609375 Z " fill="#000000" transform="translate(72.87890625,137.50390625)"/>
</svg>
