<?xml version="1.0" standalone="no"?>
<!DOCTYPE svg PUBLIC "-//W3C//DTD SVG 20010904//EN"
 "http://www.w3.org/TR/2001/REC-SVG-20010904/DTD/svg10.dtd">
<svg version="1.0" xmlns="http://www.w3.org/2000/svg"
 width="512.000000pt" height="512.000000pt" viewBox="0 0 512.000000 512.000000"
 preserveAspectRatio="xMidYMid meet">

<g transform="translate(0.000000,512.000000) scale(0.100000,-0.100000)"
fill="#000000" stroke="none">
<path d="M2505 4855 c-24 -23 -25 -29 -25 -159 l0 -135 -57 -6 c-319 -33 -554
-101 -788 -224 -371 -196 -678 -508 -863 -877 -114 -228 -175 -450 -207 -756
l-6 -58 -135 0 c-130 0 -136 -1 -159 -25 -33 -32 -33 -78 0 -110 23 -24 29
-25 159 -25 l135 0 6 -57 c39 -374 128 -646 297 -917 308 -492 816 -829 1378
-917 69 -10 151 -22 183 -25 l57 -5 0 -135 c0 -130 1 -136 25 -159 32 -33 78
-33 110 0 24 23 25 29 25 159 l0 135 58 6 c296 31 529 94 737 198 458 228 808
610 989 1077 68 178 107 349 131 583 l6 57 135 0 c130 0 136 1 159 25 16 15
25 36 25 55 0 19 -9 40 -25 55 -23 24 -29 25 -159 25 l-135 0 -6 58 c-39 371
-128 646 -297 916 -189 301 -458 552 -769 716 -239 125 -470 191 -791 225
l-58 6 0 135 c0 130 -1 136 -25 159 -15 16 -36 25 -55 25 -19 0 -40 -9 -55
-25z m-25 -775 c0 -248 -3 -321 -12 -324 -7 -2 -50 -8 -96 -14 -294 -39 -604
-229 -785 -484 -105 -146 -187 -349 -209 -510 -6 -46 -12 -89 -14 -95 -3 -10
-76 -13 -324 -13 l-321 0 5 43 c3 23 8 69 11 102 19 184 88 410 185 601 253
502 723 863 1270 974 88 18 190 32 273 39 16 1 17 -20 17 -319z m348 299 c568
-79 1095 -454 1361 -969 118 -230 178 -436 205 -713 l6 -57 -322 2 -323 3 -8
70 c-29 273 -190 570 -410 756 -176 148 -414 254 -622 276 l-70 8 -3 323 -2
322 57 -6 c32 -3 91 -10 131 -15z m-319 -1160 c32 -26 77 -24 106 6 25 24 25
27 25 198 l0 174 66 -9 c144 -20 303 -81 434 -167 81 -53 211 -182 270 -267
93 -134 157 -298 178 -451 l9 -63 -174 0 c-171 0 -174 0 -198 -25 -16 -15 -25
-36 -25 -55 0 -19 9 -40 25 -55 24 -25 27 -25 198 -25 l174 0 -9 -62 c-46
-343 -274 -649 -592 -799 -90 -42 -199 -74 -293 -87 l-63 -9 0 174 c0 171 0
174 -25 198 -32 33 -78 33 -110 0 -25 -24 -25 -27 -25 -198 l0 -174 -62 9
c-453 61 -825 433 -886 886 l-9 62 174 0 c171 0 174 0 198 25 33 32 33 78 0
110 -24 25 -27 25 -198 25 l-174 0 9 63 c46 342 274 648 592 798 91 42 203 76
292 87 l59 7 5 -178 c5 -173 6 -179 29 -198z m-1136 -814 c22 -208 128 -446
276 -622 186 -220 483 -381 756 -410 l70 -8 3 -322 2 -323 -62 6 c-371 34
-708 166 -993 388 -88 68 -238 219 -310 311 -228 292 -350 604 -389 998 l-6
57 322 -2 323 -3 8 -70z m3021 18 c-43 -430 -200 -797 -464 -1087 -330 -362
-730 -560 -1233 -610 l-57 -6 2 322 3 323 63 7 c284 31 583 194 768 417 145
175 250 412 270 611 3 30 7 61 10 68 2 9 76 12 324 12 l320 0 -6 -57z"/>
</g>
</svg>
